<?xml version="1.0" encoding="UTF-8"?>
<svg version="1.1" xmlns="http://www.w3.org/2000/svg" width="20" height="32">
<path d="M0 0 C0.73734375 0.00773438 1.4746875 0.01546875 2.234375 0.0234375 C3.34039063 0.01183594 3.34039063 0.01183594 4.46875 0 C9.9810554 0.0201179 9.9810554 0.0201179 12.234375 2.2734375 C12.4296875 4.3671875 12.4296875 4.3671875 12.359375 6.7734375 C12.34132813 7.5675 12.32328125 8.3615625 12.3046875 9.1796875 C12.28148438 9.870625 12.25828125 10.5615625 12.234375 11.2734375 C12.234375 13.22149516 12.26905826 15.16945569 12.3046875 17.1171875 C12.32332309 18.66926601 12.34153491 20.22134965 12.359375 21.7734375 C12.38451172 22.95099609 12.38451172 22.95099609 12.41015625 24.15234375 C12.42766166 26.19347442 12.33796116 28.23486183 12.234375 30.2734375 C10.234375 32.2734375 10.234375 32.2734375 8.359375 32.46875 C7.658125 32.44554687 6.956875 32.42234375 6.234375 32.3984375 C5.533125 32.38039062 4.831875 32.36234375 4.109375 32.34375 C3.490625 32.32054687 2.871875 32.29734375 2.234375 32.2734375 C0.3800913 32.2734375 -1.47412659 32.30341121 -3.328125 32.3359375 C-6.765625 32.2734375 -6.765625 32.2734375 -7.765625 31.2734375 C-8.03877315 25.53732639 -8.03877315 25.53732639 -7.765625 23.2734375 C-7.105625 22.6134375 -6.445625 21.9534375 -5.765625 21.2734375 C-6.425625 20.6134375 -7.085625 19.9534375 -7.765625 19.2734375 C-7.96419472 16.40001689 -8.04391446 13.64481762 -8.015625 10.7734375 C-8.02335938 9.98839844 -8.03109375 9.20335937 -8.0390625 8.39453125 C-8.0151446 1.42246485 -7.04758398 0.02572111 0 0 Z M1.234375 21.2734375 C1.234375 24.2734375 1.234375 24.2734375 1.234375 24.2734375 Z " fill="#FC533F" transform="translate(7.765625,-0.2734375)"/>
<path d="M0 0 C3.3 0 6.6 0 10 0 C10.1953125 6.8359375 10.1953125 6.8359375 10 9 C8 11 8 11 6.0546875 11.1953125 C4.03645833 11.13020833 2.01822917 11.06510417 0 11 C0 7.37 0 3.74 0 0 Z " fill="#57AFE3" transform="translate(10,21)"/>
<path d="M0 0 C6.0546875 -0.1953125 6.0546875 -0.1953125 8 0 C10 2 10 2 10.1953125 4.1640625 C10.13020833 6.44270833 10.06510417 8.72135417 10 11 C6.7 11 3.4 11 0 11 C0 7.37 0 3.74 0 0 Z " fill="#FA8803" transform="translate(10,0)"/>
<path d="M0 0 C2.01822917 0.06510417 4.03645833 0.13020833 6.0546875 0.1953125 C6.0546875 3.8253125 6.0546875 7.4553125 6.0546875 11.1953125 C2.7546875 11.1953125 -0.5453125 11.1953125 -3.9453125 11.1953125 C-4.140625 4.359375 -4.140625 4.359375 -3.9453125 2.1953125 C-1.9453125 0.1953125 -1.9453125 0.1953125 0 0 Z " fill="#07AA8A" transform="translate(3.9453125,-0.1953125)"/>
<path d="M0 0 C6.0546875 -0.1953125 6.0546875 -0.1953125 8 0 C10 2 10 2 10.1953125 3.9453125 C10.13020833 5.96354167 10.06510417 7.98177083 10 10 C6.7 10 3.4 10 0 10 C0 6.7 0 3.4 0 0 Z " fill="#941DAD" transform="translate(10,11)"/>
<path d="M0 0 C2.4375 0.75 2.4375 0.75 4.4375 2.75 C3.86057692 9.32692308 3.86057692 9.32692308 2.4375 10.75 C-1.0625 10.875 -1.0625 10.875 -4.5625 10.75 C-6.45378342 8.85871658 -5.7991852 6.17932274 -5.890625 3.66015625 C-5.72820313 2.71462891 -5.72820313 2.71462891 -5.5625 1.75 C-2.5625 -0.25 -2.5625 -0.25 0 0 Z " fill="#090707" transform="translate(5.5625,21.25)"/>
</svg>
